<?xml version="1.0" standalone="no"?>
<!DOCTYPE svg PUBLIC "-//W3C//DTD SVG 20010904//EN"
 "http://www.w3.org/TR/2001/REC-SVG-20010904/DTD/svg10.dtd">
<svg version="1.0" xmlns="http://www.w3.org/2000/svg"
 width="1024.000000pt" height="1024.000000pt" viewBox="0 0 1024.000000 1024.000000"
 preserveAspectRatio="xMidYMid meet">
<metadata>
Created by potrace 1.11, written by Peter Selinger 2001-2013
</metadata>
<g transform="translate(0.000000,1024.000000) scale(0.100000,-0.100000)"
fill="#000000" stroke="none">
<path d="M0 5120 l0 -5120 5120 0 5120 0 0 5120 0 5120 -5120 0 -5120 0 0
-5120z m4447 1544 c66 -19 137 -79 164 -139 25 -55 24 -147 -2 -205 -15 -35
-310 -335 -1352 -1377 -1446 -1448 -1369 -1376 -1482 -1376 -93 0 -187 61
-226 148 -25 55 -24 147 2 205 15 35 309 335 1342 1368 727 728 1337 1332
1355 1344 33 20 104 46 130 47 8 1 39 -6 69 -15z m1360 0 c66 -19 132 -75 163
-138 27 -56 27 -145 -1 -206 -15 -35 -310 -335 -1352 -1377 -1446 -1448 -1369
-1376 -1482 -1376 -93 0 -187 61 -226 148 -25 55 -24 147 2 205 15 35 309 335
1342 1368 727 728 1337 1332 1355 1344 33 20 104 46 130 47 8 1 39 -6 69 -15z
m1360 0 c66 -19 132 -75 163 -138 27 -56 27 -145 -1 -206 -15 -35 -310 -335
-1352 -1377 -1446 -1448 -1369 -1376 -1482 -1376 -93 0 -187 61 -226 148 -25
55 -24 147 2 205 15 35 309 335 1342 1368 727 728 1337 1332 1355 1344 33 20
104 46 130 47 8 1 39 -6 69 -15z m1360 0 c66 -19 132 -75 163 -138 27 -56 27
-145 -1 -206 -15 -35 -263 -288 -1119 -1145 -605 -605 -1100 -1103 -1100
-1108 0 -4 463 -7 1028 -7 l1028 0 51 -25 c85 -43 133 -123 133 -222 -1 -100
-56 -184 -150 -227 -45 -21 -47 -21 -1400 -21 -1353 0 -1355 0 -1400 21 -56
26 -107 76 -131 129 -25 55 -24 147 2 205 15 35 309 335 1342 1368 727 728
1337 1332 1355 1344 33 20 104 46 130 47 8 1 39 -6 69 -15z"/>
</g>
</svg>
